# xmcd
#
# Track frame offsets:
#	150
#	21572
#	44402
#
# Disc length: 870 seconds
#
# Revision: 1
# Processed by: cddbd v1.5.1PL0 Copyright (c) Steve Scherf et al.
# Submitted via: CDex 1.50Beta5
#
DISCID=23036403
DTITLE=浦島りん - RIN
DYEAR=1900
DGENRE=Pop
TTITLE0=a piece of glass
TTITLE1=Rain
TTITLE2=好きなんだ まだ
EXTD=
EXTT0=
EXTT1=
EXTT2=
PLAYORDER=
